HIERARCHY
ROOT Hips
{
	OFFSET 0.000000 0.000000 0.000000
	CHANNELS 6 Xposition Yposition Zposition Zrotation Yrotation Xrotation 
	JOINT LowerBack
	{
		OFFSET 0.000000 0.000000 0.000000
		CHANNELS 3 Zrotation Yrotation Xrotation
		JOINT Spine
		{
			OFFSET 0.028270 2.035590 -0.193380
			CHANNELS 3 Zrotation Yrotation Xrotation
			JOINT Spine1
			{
				OFFSET 0.056720 2.048850 -0.042750
				CHANNELS 3 Zrotation Yrotation Xrotation
				JOINT Neck
				{
					OFFSET 0.000000 0.000000 0.000000
					CHANNELS 3 Zrotation Yrotation Xrotation
					JOINT Neck1
					{
						OFFSET -0.054170 1.746240 0.172020
						CHANNELS 3 Zrotation Yrotation Xrotation
						JOINT Head
						{
							OFFSET 0.104070 1.761360 -0.123970
							CHANNELS 3 Zrotation Yrotation Xrotation
							End Site
							{
								OFFSET 0.000000 0.000000 0.000000
							}
						}
					}
				}
				JOINT LeftShoulder
				{
					OFFSET 0.000000 0.000000 0.000000
					CHANNELS 3 Zrotation Yrotation Xrotation
					JOINT LeftArm
					{
						OFFSET 3.362410 1.200890 -0.311210
						CHANNELS 3 Zrotation Yrotation Xrotation
						JOINT LeftForeArm
						{
							OFFSET 4.983000 -0.000000 -0.000000
							CHANNELS 3 Zrotation Yrotation Xrotation
							JOINT LeftHand
							{
								OFFSET 3.483560 -0.000000 -0.000000
								CHANNELS 3 Zrotation Yrotation Xrotation
								JOINT LeftFingerBase
								{
									OFFSET 0.000000 0.000000 0.000000
									CHANNELS 3 Zrotation Yrotation Xrotation
									JOINT LeftHandIndex1
									{
										OFFSET 0.715260 -0.000000 -0.000000
										CHANNELS 3 Zrotation Yrotation Xrotation
										End Site
										{
											OFFSET 0.000000 0.000000 0.000000
										}
									}
								}
								JOINT LThumb
								{
									OFFSET 0.000000 0.000000 0.000000
									CHANNELS 3 Zrotation Yrotation Xrotation
									End Site
									{
										OFFSET 0.000000 0.000000 0.000000
									}
								}
							}
						}
					}
				}
				JOINT RightShoulder
				{
					OFFSET 0.000000 0.000000 0.000000
					CHANNELS 3 Zrotation Yrotation Xrotation
					JOINT RightArm
					{
						OFFSET -3.136600 1.374050 -0.404650
						CHANNELS 3 Zrotation Yrotation Xrotation
						JOINT RightForeArm
						{
							OFFSET -5.241900 -0.000000 -0.000000
							CHANNELS 3 Zrotation Yrotation Xrotation
							JOINT RightHand
							{
								OFFSET -3.444170 -0.000000 -0.000000
								CHANNELS 3 Zrotation Yrotation Xrotation
								JOINT RightFingerBase
								{
									OFFSET 0.000000 0.000000 0.000000
									CHANNELS 3 Zrotation Yrotation Xrotation
									JOINT RightHandIndex1
									{
										OFFSET -0.622530 -0.000000 -0.000000
										CHANNELS 3 Zrotation Yrotation Xrotation
										End Site
										{
											OFFSET 0.000000 0.000000 0.000000
										}
									}
								}
								JOINT RThumb
								{
									OFFSET 0.000000 0.000000 0.000000
									CHANNELS 3 Zrotation Yrotation Xrotation
									End Site
									{
										OFFSET 0.000000 0.000000 0.000000
									}
								}
							}
						}
					}
				}
			}
		}
	}
}
}
MOTION
Frames: 15
Frame Time: 0.008333
-4.641075 16.868851 1.276917 137.637379 -78.483413 -123.397863 -2.024791 -2.521984 -8.086135 -0.492464 -2.489136 -3.948865 -5.265633 -2.418321 0.497033 6.415174 -15.634659 -8.028884 -3.003914 -0.231556 -0.039605 0.000000 0.000000 0.000000 0.545403 9.635228 -2.144249 -72.840940 -21.483679 21.726132 -177.802830 -63.258758 179.847872 21.093693 -22.970575 -4.791418 -0.823239 1.534032 -0.000000 0.000000 0.000000 0.000000 0.000000 0.000000 0.000000 2.559350 -11.588050 -1.983597 73.752917 -4.916271 31.177816 -179.252191 68.818155 179.846675 -16.174801 32.600182 -5.021562 0.223715 -1.227359 -0.000000 0.000000 0.000000 0.000000 0.000000 0.000000 0.000000 
-4.893139 16.993564 1.282806 138.885476 -78.997730 -124.541601 -1.347631 -2.905017 -8.338033 -0.260877 -2.932369 -4.011497 -4.999894 -2.894855 0.467332 6.210959 -16.126122 -7.966786 -2.949878 -0.228649 -0.012546 0.000000 0.000000 0.000000 0.956326 8.717980 -2.152380 -73.550183 -21.447977 22.381097 -177.862089 -63.142730 179.845932 21.025634 -23.042330 -4.793827 -0.823595 1.552627 -0.000000 0.000000 0.000000 0.000000 0.000000 0.000000 0.000000 2.134803 -12.393207 -1.958262 72.311493 -5.538606 31.148678 -179.316624 68.361931 179.849923 -16.115777 32.418472 -4.973043 0.225217 -1.214771 -0.000000 0.000000 0.000000 0.000000 0.000000 0.000000 0.000000 
-5.147402 17.118854 1.285839 140.341666 -79.542080 -125.889124 -0.678327 -3.279744 -8.598574 -0.031671 -3.367354 -4.081240 -4.739201 -3.363205 0.432672 6.035300 -16.623455 -7.900050 -2.901106 -0.226284 0.015477 0.000000 0.000000 0.000000 1.448537 7.808914 -2.180424 -74.304479 -21.278272 23.025262 -177.946588 -63.034935 179.844442 20.900254 -23.130875 -4.785471 -0.819669 1.569591 -0.000000 0.000000 0.000000 0.000000 0.000000 0.000000 0.000000 1.761204 -13.193179 -1.938572 70.895900 -6.091367 31.029503 -179.389272 67.933939 179.854111 -15.968357 32.216616 -4.894241 0.225627 -1.201358 -0.000000 0.000000 0.000000 0.000000 0.000000 0.000000 0.000000 
-5.402884 17.242359 1.285812 142.105434 -80.106547 -127.550319 -0.016920 -3.639734 -8.848572 0.192422 -3.787706 -4.151748 -4.493086 -3.815883 0.403496 5.897178 -17.127215 -7.838860 -2.854126 -0.223993 0.041308 0.000000 0.000000 0.000000 2.002870 6.962852 -2.225253 -75.084333 -21.076331 23.697371 -178.048916 -62.975257 179.843493 20.722682 -23.212701 -4.762473 -0.812284 1.583935 -0.000000 0.000000 0.000000 0.000000 0.000000 0.000000 0.000000 1.439842 -13.985228 -1.926608 69.526574 -6.580336 30.818801 -179.466064 67.523005 179.858920 -15.739857 32.002589 -4.789152 0.224813 -1.187770 -0.000000 0.000000 0.000000 0.000000 0.000000 0.000000 0.000000 
-5.658428 17.361291 1.281371 144.056522 -80.662713 -129.407089 0.585307 -3.989454 -9.080432 0.402552 -4.191649 -4.224322 -4.253119 -4.251512 0.365915 5.795240 -17.653098 -7.775932 -2.807029 -0.221765 0.067313 0.000000 0.000000 0.000000 2.682950 6.088185 -2.299912 -75.910466 -20.739886 24.325932 -178.187546 -62.917858 179.842548 20.459529 -23.284989 -4.716094 -0.798221 1.595376 -0.000000 0.000000 0.000000 0.000000 0.000000 0.000000 0.000000 1.148120 -14.788423 -1.910670 68.230306 -7.005240 30.540141 -179.545095 67.136201 179.864162 -15.454589 31.789258 -4.667964 0.223174 -1.174338 -0.000000 0.000000 0.000000 0.000000 0.000000 0.000000 0.000000 
-5.912978 17.473530 1.272738 146.223706 -81.197693 -131.501993 1.125154 -4.324595 -9.273678 0.595046 -4.574220 -4.291007 -4.029763 -4.663719 0.334321 5.739404 -18.200169 -7.725776 -2.756609 -0.219080 0.089062 0.000000 0.000000 0.000000 3.457529 5.261915 -2.398690 -76.759536 -20.397952 24.961547 -178.347717 -62.903712 179.841746 20.129286 -23.317723 -4.644752 -0.779461 1.602899 -0.000000 0.000000 0.000000 0.000000 0.000000 0.000000 0.000000 0.893994 -15.598191 -1.895425 67.014417 -7.372402 30.194656 -179.622602 66.752876 179.869507 -15.131794 31.583688 -4.538075 0.220958 -1.161874 -0.000000 0.000000 0.000000 0.000000 0.000000 0.000000 0.000000 
-6.165788 17.576831 1.259171 148.373532 -81.689931 -133.604241 1.555427 -4.652240 -9.420197 0.761515 -4.936655 -4.350600 -3.818172 -5.053704 0.302346 5.730068 -18.781526 -7.687640 -2.701256 -0.215839 0.106998 0.000000 0.000000 0.000000 4.359570 4.432861 -2.529369 -77.637735 -19.999394 25.557473 -178.537760 -62.902489 179.840753 19.718410 -23.303250 -4.544084 -0.754481 1.606113 -0.000000 0.000000 0.000000 0.000000 0.000000 0.000000 0.000000 0.666715 -16.430326 -1.874104 65.889762 -7.679333 29.805893 -179.697782 66.374678 179.874821 -14.801928 31.394310 -4.410074 0.218854 -1.150661 -0.000000 0.000000 0.000000 0.000000 0.000000 0.000000 0.000000 
-6.416038 17.669613 1.240897 150.320233 -82.134622 -135.543120 1.858721 -4.975289 -9.505166 0.898114 -5.279530 -4.398281 -3.619720 -5.421524 0.272909 5.768713 -19.399713 -7.667072 -2.639698 -0.211834 0.119513 0.000000 0.000000 0.000000 5.377063 3.613730 -2.690657 -78.535711 -19.577332 26.113284 -178.751450 -62.914177 179.839542 19.238047 -23.227107 -4.414694 -0.724146 1.604629 -0.000000 0.000000 0.000000 0.000000 0.000000 0.000000 0.000000 0.466535 -17.287203 -1.846895 64.856092 -7.927195 29.384601 -179.769213 65.992883 179.879921 -14.489830 31.224253 -4.291754 0.217371 -1.141047 -0.000000 0.000000 0.000000 0.000000 0.000000 0.000000 0.000000 
-6.663431 17.750815 1.218686 151.909331 -82.537017 -137.178579 2.032570 -5.294999 -9.511728 1.003803 -5.603675 -4.428726 -3.436606 -5.767558 0.249539 5.855232 -20.049831 -7.668629 -2.571966 -0.206962 0.125187 0.000000 0.000000 0.000000 6.482393 2.828561 -2.877316 -79.443343 -19.175339 26.638551 -178.977579 -62.943377 179.838210 18.709781 -23.077688 -4.260773 -0.690209 1.598334 -0.000000 0.000000 0.000000 0.000000 0.000000 0.000000 0.000000 0.298654 -18.163977 -1.815622 63.903792 -8.120947 28.935166 -179.835786 65.597802 179.884662 -14.214771 31.070512 -4.188212 0.216894 -1.133188 -0.000000 0.000000 0.000000 0.000000 0.000000 0.000000 0.000000 
-6.907754 17.819913 1.193373 152.980788 -82.908082 -138.364965 2.079866 -5.613518 -9.429138 1.079497 -5.911722 -4.439178 -3.267956 -6.094456 0.230493 5.985114 -20.726417 -7.692077 -2.499256 -0.201292 0.124055 0.000000 0.000000 0.000000 7.647787 2.076034 -3.084475 -80.353047 -18.796836 27.124578 -179.209288 -62.984261 179.836828 18.151671 -22.853896 -4.087998 -0.653922 1.587471 -0.000000 0.000000 0.000000 0.000000 0.000000 0.000000 0.000000 0.165047 -19.055982 -1.780511 63.021520 -8.261901 28.463390 -179.897504 65.187633 179.888986 -13.990929 30.926934 -4.102446 0.217744 -1.126961 -0.000000 0.000000 0.000000 0.000000 0.000000 0.000000 0.000000 
-7.149712 17.877068 1.166164 153.519946 -83.264140 -139.083790 2.026600 -5.928285 -9.263722 1.130272 -6.204736 -4.430314 -3.114005 -6.403475 0.216051 6.152003 -21.415254 -7.737033 -2.424063 -0.195012 0.116219 0.000000 0.000000 0.000000 8.825189 1.373315 -3.302279 -81.255755 -18.457731 27.580582 -179.435618 -63.039098 179.835541 17.597447 -22.558504 -3.906219 -0.617678 1.572623 -0.000000 0.000000 0.000000 0.000000 0.000000 0.000000 0.000000 0.072055 -19.948360 -1.745145 62.187389 -8.359870 27.971356 -179.954286 64.756549 179.892860 -13.828354 30.782590 -4.035659 0.220173 -1.122118 -0.000000 0.000000 0.000000 0.000000 0.000000 0.000000 0.000000 
-7.388602 17.922656 1.138337 153.739736 -83.600835 -139.571570 1.907638 -6.231928 -8.992311 1.162148 -6.478909 -4.400699 -2.971990 -6.690970 0.195002 6.342555 -22.118465 -7.793126 -2.350202 -0.188543 0.104394 0.000000 0.000000 0.000000 9.992956 0.663842 -3.528779 -82.143446 -18.090922 27.947154 -179.660213 -63.066837 179.834429 17.023677 -22.211375 -3.714933 -0.580294 1.555070 -0.000000 0.000000 0.000000 0.000000 0.000000 0.000000 0.000000 0.010430 -20.843652 -1.700003 61.406001 -8.379062 27.461035 179.988861 64.333767 179.896530 -13.702438 30.631209 -3.979554 0.223775 -1.118146 -0.000000 0.000000 0.000000 0.000000 0.000000 0.000000 0.000000 
-7.625728 17.957516 1.110710 153.873854 -83.924034 -140.030040 1.761532 -6.514922 -8.650785 1.181111 -6.730473 -4.355920 -2.848370 -6.953192 0.173425 6.558832 -22.802080 -7.862238 -2.282131 -0.182227 0.088128 0.000000 0.000000 0.000000 11.087362 0.015323 -3.746680 -83.002406 -17.755703 28.282474 -179.865524 -63.105662 179.833630 16.496705 -21.817854 -3.530863 -0.546038 1.535349 -0.000000 0.000000 0.000000 0.000000 0.000000 0.000000 0.000000 0.008549 -21.703231 -1.657168 60.644717 -8.355511 26.926061 179.933542 63.899701 179.899945 -13.615983 30.450921 -3.931634 0.228653 -1.114709 -0.000000 0.000000 0.000000 0.000000 0.000000 0.000000 0.000000 
-7.860832 17.982103 1.083601 154.215316 -84.217491 -140.750892 1.610316 -6.769527 -8.244165 1.190569 -6.954279 -4.298813 -2.742945 -7.185152 0.144808 6.794133 -23.456513 -7.935376 -2.223846 -0.176526 0.069959 0.000000 0.000000 0.000000 12.093960 -0.598997 -3.952412 -83.824798 -17.405953 28.558153 179.945216 -63.133572 179.833057 16.014498 -21.399681 -3.357093 -0.514590 1.514597 -0.000000 0.000000 0.000000 0.000000 0.000000 0.000000 0.000000 0.067037 -22.515829 -1.613741 59.908167 -8.275374 26.367964 179.876539 63.471418 179.903299 -13.540794 30.231197 -3.882404 0.234269 -1.111343 -0.000000 0.000000 0.000000 0.000000 0.000000 0.000000 0.000000 
-8.094167 17.996613 1.056863 154.998373 -84.463194 -141.954581 1.463269 -6.990717 -7.787552 1.191704 -7.146728 -4.232870 -2.656966 -7.383348 0.106915 7.045526 -24.067327 -8.006001 -2.178173 -0.171788 0.051818 0.000000 0.000000 0.000000 13.001226 -1.183769 -4.141332 -84.601283 -17.017588 28.767806 179.770472 -63.147228 179.832591 15.587739 -20.977089 -3.198806 -0.486206 1.493600 -0.000000 0.000000 0.000000 0.000000 0.000000 0.000000 0.000000 0.189464 -23.264978 -1.570898 59.199942 -8.139088 25.790195 179.816315 63.057956 179.906713 -13.453423 29.960881 -3.823367 0.240120 -1.107624 -0.000000 0.000000 0.000000 0.000000 0.000000 0.000000 0.000000 
